<mxfile host="app.diagrams.net" modified="2023-10-08T03:12:21.438Z" agent="Mozilla/5.0 (Windows NT 10.0; Win64; x64) AppleWebKit/537.36 (KHTML, like Gecko) Chrome/117.0.0.0 Safari/537.36" etag="EnuHoXjlA5i5xj7GYfyi" version="22.0.4" type="device">
  <diagram name="Page-1" id="ail3PXInjO6bduJlAWtk">
    <mxGraphModel dx="519" dy="1250" grid="1" gridSize="10" guides="1" tooltips="1" connect="1" arrows="1" fold="1" page="1" pageScale="1" pageWidth="850" pageHeight="1100" math="0" shadow="0">
      <root>
        <mxCell id="0" />
        <mxCell id="1" parent="0" />
        <mxCell id="uT9SR2ZFcRWDlsRvDE1g-1" value="" style="endArrow=none;html=1;rounded=0;strokeColor=#ff0000;" edge="1" parent="1">
          <mxGeometry width="50" height="50" relative="1" as="geometry">
            <mxPoint x="80" y="880" as="sourcePoint" />
            <mxPoint x="160" y="880" as="targetPoint" />
          </mxGeometry>
        </mxCell>
        <mxCell id="uT9SR2ZFcRWDlsRvDE1g-135" value="master thread" style="edgeLabel;html=1;align=center;verticalAlign=middle;resizable=0;points=[];" vertex="1" connectable="0" parent="uT9SR2ZFcRWDlsRvDE1g-1">
          <mxGeometry x="-0.3464" y="1" relative="1" as="geometry">
            <mxPoint x="14" y="-9" as="offset" />
          </mxGeometry>
        </mxCell>
        <mxCell id="uT9SR2ZFcRWDlsRvDE1g-3" value="" style="endArrow=none;html=1;rounded=0;strokeColor=#006eff;" edge="1" parent="1">
          <mxGeometry width="50" height="50" relative="1" as="geometry">
            <mxPoint x="160" y="880" as="sourcePoint" />
            <mxPoint x="200" y="830" as="targetPoint" />
          </mxGeometry>
        </mxCell>
        <mxCell id="uT9SR2ZFcRWDlsRvDE1g-4" value="" style="endArrow=none;html=1;rounded=0;strokeColor=#006eff;" edge="1" parent="1">
          <mxGeometry width="50" height="50" relative="1" as="geometry">
            <mxPoint x="160" y="880" as="sourcePoint" />
            <mxPoint x="200" y="850" as="targetPoint" />
          </mxGeometry>
        </mxCell>
        <mxCell id="uT9SR2ZFcRWDlsRvDE1g-5" value="" style="endArrow=none;html=1;rounded=0;strokeColor=#006eff;" edge="1" parent="1">
          <mxGeometry width="50" height="50" relative="1" as="geometry">
            <mxPoint x="160" y="880" as="sourcePoint" />
            <mxPoint x="200" y="870" as="targetPoint" />
          </mxGeometry>
        </mxCell>
        <mxCell id="uT9SR2ZFcRWDlsRvDE1g-6" value="" style="endArrow=none;html=1;rounded=0;strokeColor=#006eff;" edge="1" parent="1">
          <mxGeometry width="50" height="50" relative="1" as="geometry">
            <mxPoint x="160" y="880" as="sourcePoint" />
            <mxPoint x="200" y="890" as="targetPoint" />
          </mxGeometry>
        </mxCell>
        <mxCell id="uT9SR2ZFcRWDlsRvDE1g-7" value="" style="endArrow=none;html=1;rounded=0;strokeColor=#006eff;" edge="1" parent="1">
          <mxGeometry width="50" height="50" relative="1" as="geometry">
            <mxPoint x="160" y="880" as="sourcePoint" />
            <mxPoint x="200" y="910" as="targetPoint" />
          </mxGeometry>
        </mxCell>
        <mxCell id="uT9SR2ZFcRWDlsRvDE1g-8" value="" style="endArrow=none;html=1;rounded=0;strokeColor=#006eff;" edge="1" parent="1">
          <mxGeometry width="50" height="50" relative="1" as="geometry">
            <mxPoint x="160" y="880" as="sourcePoint" />
            <mxPoint x="200" y="930" as="targetPoint" />
          </mxGeometry>
        </mxCell>
        <mxCell id="uT9SR2ZFcRWDlsRvDE1g-10" value="" style="endArrow=none;html=1;rounded=0;strokeColor=#006eff;" edge="1" parent="1">
          <mxGeometry width="50" height="50" relative="1" as="geometry">
            <mxPoint x="200" y="830" as="sourcePoint" />
            <mxPoint x="260" y="830" as="targetPoint" />
          </mxGeometry>
        </mxCell>
        <mxCell id="uT9SR2ZFcRWDlsRvDE1g-11" value="" style="endArrow=none;html=1;rounded=0;strokeColor=#006eff;" edge="1" parent="1">
          <mxGeometry width="50" height="50" relative="1" as="geometry">
            <mxPoint x="200" y="850" as="sourcePoint" />
            <mxPoint x="260" y="850" as="targetPoint" />
          </mxGeometry>
        </mxCell>
        <mxCell id="uT9SR2ZFcRWDlsRvDE1g-12" value="" style="endArrow=none;html=1;rounded=0;strokeColor=#006eff;" edge="1" parent="1">
          <mxGeometry width="50" height="50" relative="1" as="geometry">
            <mxPoint x="200" y="870" as="sourcePoint" />
            <mxPoint x="260" y="870" as="targetPoint" />
          </mxGeometry>
        </mxCell>
        <mxCell id="uT9SR2ZFcRWDlsRvDE1g-137" value="slave thread" style="edgeLabel;html=1;align=center;verticalAlign=middle;resizable=0;points=[];" vertex="1" connectable="0" parent="uT9SR2ZFcRWDlsRvDE1g-12">
          <mxGeometry x="-0.1667" y="1" relative="1" as="geometry">
            <mxPoint x="5" y="-9" as="offset" />
          </mxGeometry>
        </mxCell>
        <mxCell id="uT9SR2ZFcRWDlsRvDE1g-13" value="" style="endArrow=none;html=1;rounded=0;strokeColor=#006eff;" edge="1" parent="1">
          <mxGeometry width="50" height="50" relative="1" as="geometry">
            <mxPoint x="200" y="890" as="sourcePoint" />
            <mxPoint x="260" y="890" as="targetPoint" />
          </mxGeometry>
        </mxCell>
        <mxCell id="uT9SR2ZFcRWDlsRvDE1g-14" value="" style="endArrow=none;html=1;rounded=0;strokeColor=#006eff;" edge="1" parent="1">
          <mxGeometry width="50" height="50" relative="1" as="geometry">
            <mxPoint x="200" y="910" as="sourcePoint" />
            <mxPoint x="260" y="910" as="targetPoint" />
          </mxGeometry>
        </mxCell>
        <mxCell id="uT9SR2ZFcRWDlsRvDE1g-15" value="" style="endArrow=none;html=1;rounded=0;strokeColor=#006eff;" edge="1" parent="1">
          <mxGeometry width="50" height="50" relative="1" as="geometry">
            <mxPoint x="200" y="930" as="sourcePoint" />
            <mxPoint x="260" y="930" as="targetPoint" />
          </mxGeometry>
        </mxCell>
        <mxCell id="uT9SR2ZFcRWDlsRvDE1g-23" value="" style="endArrow=none;html=1;rounded=0;strokeColor=#ff0000;" edge="1" parent="1">
          <mxGeometry width="50" height="50" relative="1" as="geometry">
            <mxPoint x="300" y="879.71" as="sourcePoint" />
            <mxPoint x="380" y="879.71" as="targetPoint" />
          </mxGeometry>
        </mxCell>
        <mxCell id="uT9SR2ZFcRWDlsRvDE1g-16" value="" style="endArrow=none;html=1;rounded=0;strokeColor=#006eff;" edge="1" parent="1">
          <mxGeometry width="50" height="50" relative="1" as="geometry">
            <mxPoint x="300" y="880" as="sourcePoint" />
            <mxPoint x="259" y="930" as="targetPoint" />
          </mxGeometry>
        </mxCell>
        <mxCell id="uT9SR2ZFcRWDlsRvDE1g-17" value="" style="endArrow=none;html=1;rounded=0;strokeColor=#006eff;" edge="1" parent="1">
          <mxGeometry width="50" height="50" relative="1" as="geometry">
            <mxPoint x="300" y="880" as="sourcePoint" />
            <mxPoint x="259" y="910" as="targetPoint" />
          </mxGeometry>
        </mxCell>
        <mxCell id="uT9SR2ZFcRWDlsRvDE1g-18" value="" style="endArrow=none;html=1;rounded=0;strokeColor=#006eff;" edge="1" parent="1">
          <mxGeometry width="50" height="50" relative="1" as="geometry">
            <mxPoint x="300" y="880" as="sourcePoint" />
            <mxPoint x="260" y="890" as="targetPoint" />
          </mxGeometry>
        </mxCell>
        <mxCell id="uT9SR2ZFcRWDlsRvDE1g-19" value="" style="endArrow=none;html=1;rounded=0;strokeColor=#006eff;" edge="1" parent="1">
          <mxGeometry width="50" height="50" relative="1" as="geometry">
            <mxPoint x="300" y="880" as="sourcePoint" />
            <mxPoint x="260" y="870" as="targetPoint" />
          </mxGeometry>
        </mxCell>
        <mxCell id="uT9SR2ZFcRWDlsRvDE1g-20" value="" style="endArrow=none;html=1;rounded=0;strokeColor=#006eff;" edge="1" parent="1">
          <mxGeometry width="50" height="50" relative="1" as="geometry">
            <mxPoint x="300" y="880" as="sourcePoint" />
            <mxPoint x="261" y="850" as="targetPoint" />
          </mxGeometry>
        </mxCell>
        <mxCell id="uT9SR2ZFcRWDlsRvDE1g-21" value="" style="endArrow=none;html=1;rounded=0;strokeColor=#006eff;" edge="1" parent="1">
          <mxGeometry width="50" height="50" relative="1" as="geometry">
            <mxPoint x="300" y="880" as="sourcePoint" />
            <mxPoint x="261" y="830" as="targetPoint" />
          </mxGeometry>
        </mxCell>
        <mxCell id="uT9SR2ZFcRWDlsRvDE1g-24" value="" style="endArrow=none;html=1;rounded=0;strokeColor=#ff0000;" edge="1" parent="1">
          <mxGeometry width="50" height="50" relative="1" as="geometry">
            <mxPoint x="40" y="1000" as="sourcePoint" />
            <mxPoint x="120" y="1000" as="targetPoint" />
          </mxGeometry>
        </mxCell>
        <mxCell id="uT9SR2ZFcRWDlsRvDE1g-136" value="master thread" style="edgeLabel;html=1;align=center;verticalAlign=middle;resizable=0;points=[];" vertex="1" connectable="0" parent="uT9SR2ZFcRWDlsRvDE1g-24">
          <mxGeometry x="-0.1036" y="-4" relative="1" as="geometry">
            <mxPoint y="-14" as="offset" />
          </mxGeometry>
        </mxCell>
        <mxCell id="uT9SR2ZFcRWDlsRvDE1g-37" value="" style="endArrow=none;html=1;rounded=0;strokeColor=#ff0000;" edge="1" parent="1">
          <mxGeometry width="50" height="50" relative="1" as="geometry">
            <mxPoint x="211" y="999.71" as="sourcePoint" />
            <mxPoint x="220" y="1000" as="targetPoint" />
          </mxGeometry>
        </mxCell>
        <mxCell id="uT9SR2ZFcRWDlsRvDE1g-66" value="" style="group" vertex="1" connectable="0" parent="1">
          <mxGeometry x="120" y="950" width="91" height="100" as="geometry" />
        </mxCell>
        <mxCell id="uT9SR2ZFcRWDlsRvDE1g-25" value="" style="endArrow=none;html=1;rounded=0;strokeColor=#006eff;" edge="1" parent="uT9SR2ZFcRWDlsRvDE1g-66">
          <mxGeometry width="50" height="50" relative="1" as="geometry">
            <mxPoint y="50" as="sourcePoint" />
            <mxPoint x="40" as="targetPoint" />
          </mxGeometry>
        </mxCell>
        <mxCell id="uT9SR2ZFcRWDlsRvDE1g-26" value="" style="endArrow=none;html=1;rounded=0;strokeColor=#006eff;" edge="1" parent="uT9SR2ZFcRWDlsRvDE1g-66">
          <mxGeometry width="50" height="50" relative="1" as="geometry">
            <mxPoint y="50" as="sourcePoint" />
            <mxPoint x="40" y="20" as="targetPoint" />
          </mxGeometry>
        </mxCell>
        <mxCell id="uT9SR2ZFcRWDlsRvDE1g-27" value="" style="endArrow=none;html=1;rounded=0;strokeColor=#006eff;" edge="1" parent="uT9SR2ZFcRWDlsRvDE1g-66">
          <mxGeometry width="50" height="50" relative="1" as="geometry">
            <mxPoint y="50" as="sourcePoint" />
            <mxPoint x="40" y="40" as="targetPoint" />
          </mxGeometry>
        </mxCell>
        <mxCell id="uT9SR2ZFcRWDlsRvDE1g-28" value="" style="endArrow=none;html=1;rounded=0;strokeColor=#006eff;" edge="1" parent="uT9SR2ZFcRWDlsRvDE1g-66">
          <mxGeometry width="50" height="50" relative="1" as="geometry">
            <mxPoint y="50" as="sourcePoint" />
            <mxPoint x="40" y="60" as="targetPoint" />
          </mxGeometry>
        </mxCell>
        <mxCell id="uT9SR2ZFcRWDlsRvDE1g-29" value="" style="endArrow=none;html=1;rounded=0;strokeColor=#006eff;" edge="1" parent="uT9SR2ZFcRWDlsRvDE1g-66">
          <mxGeometry width="50" height="50" relative="1" as="geometry">
            <mxPoint y="50" as="sourcePoint" />
            <mxPoint x="40" y="80" as="targetPoint" />
          </mxGeometry>
        </mxCell>
        <mxCell id="uT9SR2ZFcRWDlsRvDE1g-30" value="" style="endArrow=none;html=1;rounded=0;strokeColor=#006eff;" edge="1" parent="uT9SR2ZFcRWDlsRvDE1g-66">
          <mxGeometry width="50" height="50" relative="1" as="geometry">
            <mxPoint y="50" as="sourcePoint" />
            <mxPoint x="40" y="100" as="targetPoint" />
          </mxGeometry>
        </mxCell>
        <mxCell id="uT9SR2ZFcRWDlsRvDE1g-44" value="" style="group" vertex="1" connectable="0" parent="uT9SR2ZFcRWDlsRvDE1g-66">
          <mxGeometry x="50" width="41" height="100" as="geometry" />
        </mxCell>
        <mxCell id="uT9SR2ZFcRWDlsRvDE1g-38" value="" style="endArrow=none;html=1;rounded=0;strokeColor=#006eff;" edge="1" parent="uT9SR2ZFcRWDlsRvDE1g-44">
          <mxGeometry width="50" height="50" relative="1" as="geometry">
            <mxPoint x="41" y="50" as="sourcePoint" />
            <mxPoint y="100" as="targetPoint" />
          </mxGeometry>
        </mxCell>
        <mxCell id="uT9SR2ZFcRWDlsRvDE1g-39" value="" style="endArrow=none;html=1;rounded=0;strokeColor=#006eff;" edge="1" parent="uT9SR2ZFcRWDlsRvDE1g-44">
          <mxGeometry width="50" height="50" relative="1" as="geometry">
            <mxPoint x="41" y="50" as="sourcePoint" />
            <mxPoint y="80" as="targetPoint" />
          </mxGeometry>
        </mxCell>
        <mxCell id="uT9SR2ZFcRWDlsRvDE1g-40" value="" style="endArrow=none;html=1;rounded=0;strokeColor=#006eff;" edge="1" parent="uT9SR2ZFcRWDlsRvDE1g-44">
          <mxGeometry width="50" height="50" relative="1" as="geometry">
            <mxPoint x="41" y="50" as="sourcePoint" />
            <mxPoint x="1" y="60" as="targetPoint" />
          </mxGeometry>
        </mxCell>
        <mxCell id="uT9SR2ZFcRWDlsRvDE1g-41" value="" style="endArrow=none;html=1;rounded=0;strokeColor=#006eff;" edge="1" parent="uT9SR2ZFcRWDlsRvDE1g-44">
          <mxGeometry width="50" height="50" relative="1" as="geometry">
            <mxPoint x="41" y="50" as="sourcePoint" />
            <mxPoint x="1" y="40" as="targetPoint" />
          </mxGeometry>
        </mxCell>
        <mxCell id="uT9SR2ZFcRWDlsRvDE1g-42" value="" style="endArrow=none;html=1;rounded=0;strokeColor=#006eff;" edge="1" parent="uT9SR2ZFcRWDlsRvDE1g-44">
          <mxGeometry width="50" height="50" relative="1" as="geometry">
            <mxPoint x="41" y="50" as="sourcePoint" />
            <mxPoint x="2" y="20" as="targetPoint" />
          </mxGeometry>
        </mxCell>
        <mxCell id="uT9SR2ZFcRWDlsRvDE1g-43" value="" style="endArrow=none;html=1;rounded=0;strokeColor=#006eff;" edge="1" parent="uT9SR2ZFcRWDlsRvDE1g-44">
          <mxGeometry width="50" height="50" relative="1" as="geometry">
            <mxPoint x="41" y="50" as="sourcePoint" />
            <mxPoint x="2" as="targetPoint" />
          </mxGeometry>
        </mxCell>
        <mxCell id="uT9SR2ZFcRWDlsRvDE1g-45" value="" style="group" vertex="1" connectable="0" parent="uT9SR2ZFcRWDlsRvDE1g-66">
          <mxGeometry x="40" width="10" height="100" as="geometry" />
        </mxCell>
        <mxCell id="uT9SR2ZFcRWDlsRvDE1g-31" value="" style="endArrow=none;html=1;rounded=0;strokeColor=#006eff;" edge="1" parent="uT9SR2ZFcRWDlsRvDE1g-45">
          <mxGeometry width="50" height="50" relative="1" as="geometry">
            <mxPoint as="sourcePoint" />
            <mxPoint x="10" as="targetPoint" />
          </mxGeometry>
        </mxCell>
        <mxCell id="uT9SR2ZFcRWDlsRvDE1g-32" value="" style="endArrow=none;html=1;rounded=0;strokeColor=#006eff;" edge="1" parent="uT9SR2ZFcRWDlsRvDE1g-45">
          <mxGeometry width="50" height="50" relative="1" as="geometry">
            <mxPoint y="20" as="sourcePoint" />
            <mxPoint x="10" y="20" as="targetPoint" />
          </mxGeometry>
        </mxCell>
        <mxCell id="uT9SR2ZFcRWDlsRvDE1g-33" value="" style="endArrow=none;html=1;rounded=0;strokeColor=#006eff;" edge="1" parent="uT9SR2ZFcRWDlsRvDE1g-45">
          <mxGeometry width="50" height="50" relative="1" as="geometry">
            <mxPoint y="40" as="sourcePoint" />
            <mxPoint x="10" y="40" as="targetPoint" />
          </mxGeometry>
        </mxCell>
        <mxCell id="uT9SR2ZFcRWDlsRvDE1g-34" value="" style="endArrow=none;html=1;rounded=0;strokeColor=#006eff;" edge="1" parent="uT9SR2ZFcRWDlsRvDE1g-45">
          <mxGeometry width="50" height="50" relative="1" as="geometry">
            <mxPoint y="60" as="sourcePoint" />
            <mxPoint x="10" y="60" as="targetPoint" />
          </mxGeometry>
        </mxCell>
        <mxCell id="uT9SR2ZFcRWDlsRvDE1g-35" value="" style="endArrow=none;html=1;rounded=0;strokeColor=#006eff;" edge="1" parent="uT9SR2ZFcRWDlsRvDE1g-45">
          <mxGeometry width="50" height="50" relative="1" as="geometry">
            <mxPoint y="80" as="sourcePoint" />
            <mxPoint x="10" y="80" as="targetPoint" />
          </mxGeometry>
        </mxCell>
        <mxCell id="uT9SR2ZFcRWDlsRvDE1g-36" value="" style="endArrow=none;html=1;rounded=0;strokeColor=#006eff;" edge="1" parent="uT9SR2ZFcRWDlsRvDE1g-45">
          <mxGeometry width="50" height="50" relative="1" as="geometry">
            <mxPoint y="100" as="sourcePoint" />
            <mxPoint x="10" y="100" as="targetPoint" />
          </mxGeometry>
        </mxCell>
        <mxCell id="uT9SR2ZFcRWDlsRvDE1g-88" value="" style="group" vertex="1" connectable="0" parent="1">
          <mxGeometry x="220" y="950" width="91" height="100" as="geometry" />
        </mxCell>
        <mxCell id="uT9SR2ZFcRWDlsRvDE1g-89" value="" style="endArrow=none;html=1;rounded=0;strokeColor=#006eff;" edge="1" parent="uT9SR2ZFcRWDlsRvDE1g-88">
          <mxGeometry width="50" height="50" relative="1" as="geometry">
            <mxPoint y="50" as="sourcePoint" />
            <mxPoint x="40" as="targetPoint" />
          </mxGeometry>
        </mxCell>
        <mxCell id="uT9SR2ZFcRWDlsRvDE1g-90" value="" style="endArrow=none;html=1;rounded=0;strokeColor=#006eff;" edge="1" parent="uT9SR2ZFcRWDlsRvDE1g-88">
          <mxGeometry width="50" height="50" relative="1" as="geometry">
            <mxPoint y="50" as="sourcePoint" />
            <mxPoint x="40" y="20" as="targetPoint" />
          </mxGeometry>
        </mxCell>
        <mxCell id="uT9SR2ZFcRWDlsRvDE1g-91" value="" style="endArrow=none;html=1;rounded=0;strokeColor=#006eff;" edge="1" parent="uT9SR2ZFcRWDlsRvDE1g-88">
          <mxGeometry width="50" height="50" relative="1" as="geometry">
            <mxPoint y="50" as="sourcePoint" />
            <mxPoint x="40" y="40" as="targetPoint" />
          </mxGeometry>
        </mxCell>
        <mxCell id="uT9SR2ZFcRWDlsRvDE1g-92" value="" style="endArrow=none;html=1;rounded=0;strokeColor=#006eff;" edge="1" parent="uT9SR2ZFcRWDlsRvDE1g-88">
          <mxGeometry width="50" height="50" relative="1" as="geometry">
            <mxPoint y="50" as="sourcePoint" />
            <mxPoint x="40" y="60" as="targetPoint" />
          </mxGeometry>
        </mxCell>
        <mxCell id="uT9SR2ZFcRWDlsRvDE1g-93" value="" style="endArrow=none;html=1;rounded=0;strokeColor=#006eff;" edge="1" parent="uT9SR2ZFcRWDlsRvDE1g-88">
          <mxGeometry width="50" height="50" relative="1" as="geometry">
            <mxPoint y="50" as="sourcePoint" />
            <mxPoint x="40" y="80" as="targetPoint" />
          </mxGeometry>
        </mxCell>
        <mxCell id="uT9SR2ZFcRWDlsRvDE1g-94" value="" style="endArrow=none;html=1;rounded=0;strokeColor=#006eff;" edge="1" parent="uT9SR2ZFcRWDlsRvDE1g-88">
          <mxGeometry width="50" height="50" relative="1" as="geometry">
            <mxPoint y="50" as="sourcePoint" />
            <mxPoint x="40" y="100" as="targetPoint" />
          </mxGeometry>
        </mxCell>
        <mxCell id="uT9SR2ZFcRWDlsRvDE1g-95" value="" style="group" vertex="1" connectable="0" parent="uT9SR2ZFcRWDlsRvDE1g-88">
          <mxGeometry x="50" width="41" height="100" as="geometry" />
        </mxCell>
        <mxCell id="uT9SR2ZFcRWDlsRvDE1g-96" value="" style="endArrow=none;html=1;rounded=0;strokeColor=#006eff;" edge="1" parent="uT9SR2ZFcRWDlsRvDE1g-95">
          <mxGeometry width="50" height="50" relative="1" as="geometry">
            <mxPoint x="41" y="50" as="sourcePoint" />
            <mxPoint y="100" as="targetPoint" />
          </mxGeometry>
        </mxCell>
        <mxCell id="uT9SR2ZFcRWDlsRvDE1g-97" value="" style="endArrow=none;html=1;rounded=0;strokeColor=#006eff;" edge="1" parent="uT9SR2ZFcRWDlsRvDE1g-95">
          <mxGeometry width="50" height="50" relative="1" as="geometry">
            <mxPoint x="41" y="50" as="sourcePoint" />
            <mxPoint y="80" as="targetPoint" />
          </mxGeometry>
        </mxCell>
        <mxCell id="uT9SR2ZFcRWDlsRvDE1g-98" value="" style="endArrow=none;html=1;rounded=0;strokeColor=#006eff;" edge="1" parent="uT9SR2ZFcRWDlsRvDE1g-95">
          <mxGeometry width="50" height="50" relative="1" as="geometry">
            <mxPoint x="41" y="50" as="sourcePoint" />
            <mxPoint x="1" y="60" as="targetPoint" />
          </mxGeometry>
        </mxCell>
        <mxCell id="uT9SR2ZFcRWDlsRvDE1g-99" value="" style="endArrow=none;html=1;rounded=0;strokeColor=#006eff;" edge="1" parent="uT9SR2ZFcRWDlsRvDE1g-95">
          <mxGeometry width="50" height="50" relative="1" as="geometry">
            <mxPoint x="41" y="50" as="sourcePoint" />
            <mxPoint x="1" y="40" as="targetPoint" />
          </mxGeometry>
        </mxCell>
        <mxCell id="uT9SR2ZFcRWDlsRvDE1g-100" value="" style="endArrow=none;html=1;rounded=0;strokeColor=#006eff;" edge="1" parent="uT9SR2ZFcRWDlsRvDE1g-95">
          <mxGeometry width="50" height="50" relative="1" as="geometry">
            <mxPoint x="41" y="50" as="sourcePoint" />
            <mxPoint x="2" y="20" as="targetPoint" />
          </mxGeometry>
        </mxCell>
        <mxCell id="uT9SR2ZFcRWDlsRvDE1g-101" value="" style="endArrow=none;html=1;rounded=0;strokeColor=#006eff;" edge="1" parent="uT9SR2ZFcRWDlsRvDE1g-95">
          <mxGeometry width="50" height="50" relative="1" as="geometry">
            <mxPoint x="41" y="50" as="sourcePoint" />
            <mxPoint x="2" as="targetPoint" />
          </mxGeometry>
        </mxCell>
        <mxCell id="uT9SR2ZFcRWDlsRvDE1g-102" value="" style="group" vertex="1" connectable="0" parent="uT9SR2ZFcRWDlsRvDE1g-88">
          <mxGeometry x="40" width="10" height="100" as="geometry" />
        </mxCell>
        <mxCell id="uT9SR2ZFcRWDlsRvDE1g-103" value="" style="endArrow=none;html=1;rounded=0;strokeColor=#006eff;" edge="1" parent="uT9SR2ZFcRWDlsRvDE1g-102">
          <mxGeometry width="50" height="50" relative="1" as="geometry">
            <mxPoint as="sourcePoint" />
            <mxPoint x="10" as="targetPoint" />
          </mxGeometry>
        </mxCell>
        <mxCell id="uT9SR2ZFcRWDlsRvDE1g-104" value="" style="endArrow=none;html=1;rounded=0;strokeColor=#006eff;" edge="1" parent="uT9SR2ZFcRWDlsRvDE1g-102">
          <mxGeometry width="50" height="50" relative="1" as="geometry">
            <mxPoint y="20" as="sourcePoint" />
            <mxPoint x="10" y="20" as="targetPoint" />
          </mxGeometry>
        </mxCell>
        <mxCell id="uT9SR2ZFcRWDlsRvDE1g-105" value="" style="endArrow=none;html=1;rounded=0;strokeColor=#006eff;" edge="1" parent="uT9SR2ZFcRWDlsRvDE1g-102">
          <mxGeometry width="50" height="50" relative="1" as="geometry">
            <mxPoint y="40" as="sourcePoint" />
            <mxPoint x="10" y="40" as="targetPoint" />
          </mxGeometry>
        </mxCell>
        <mxCell id="uT9SR2ZFcRWDlsRvDE1g-106" value="" style="endArrow=none;html=1;rounded=0;strokeColor=#006eff;" edge="1" parent="uT9SR2ZFcRWDlsRvDE1g-102">
          <mxGeometry width="50" height="50" relative="1" as="geometry">
            <mxPoint y="60" as="sourcePoint" />
            <mxPoint x="10" y="60" as="targetPoint" />
          </mxGeometry>
        </mxCell>
        <mxCell id="uT9SR2ZFcRWDlsRvDE1g-107" value="" style="endArrow=none;html=1;rounded=0;strokeColor=#006eff;" edge="1" parent="uT9SR2ZFcRWDlsRvDE1g-102">
          <mxGeometry width="50" height="50" relative="1" as="geometry">
            <mxPoint y="80" as="sourcePoint" />
            <mxPoint x="10" y="80" as="targetPoint" />
          </mxGeometry>
        </mxCell>
        <mxCell id="uT9SR2ZFcRWDlsRvDE1g-108" value="" style="endArrow=none;html=1;rounded=0;strokeColor=#006eff;" edge="1" parent="uT9SR2ZFcRWDlsRvDE1g-102">
          <mxGeometry width="50" height="50" relative="1" as="geometry">
            <mxPoint y="100" as="sourcePoint" />
            <mxPoint x="10" y="100" as="targetPoint" />
          </mxGeometry>
        </mxCell>
        <mxCell id="uT9SR2ZFcRWDlsRvDE1g-110" value="" style="group" vertex="1" connectable="0" parent="1">
          <mxGeometry x="320" y="950" width="91" height="100" as="geometry" />
        </mxCell>
        <mxCell id="uT9SR2ZFcRWDlsRvDE1g-111" value="" style="endArrow=none;html=1;rounded=0;strokeColor=#006eff;" edge="1" parent="uT9SR2ZFcRWDlsRvDE1g-110">
          <mxGeometry width="50" height="50" relative="1" as="geometry">
            <mxPoint y="50" as="sourcePoint" />
            <mxPoint x="40" as="targetPoint" />
          </mxGeometry>
        </mxCell>
        <mxCell id="uT9SR2ZFcRWDlsRvDE1g-112" value="" style="endArrow=none;html=1;rounded=0;strokeColor=#006eff;" edge="1" parent="uT9SR2ZFcRWDlsRvDE1g-110">
          <mxGeometry width="50" height="50" relative="1" as="geometry">
            <mxPoint y="50" as="sourcePoint" />
            <mxPoint x="40" y="20" as="targetPoint" />
          </mxGeometry>
        </mxCell>
        <mxCell id="uT9SR2ZFcRWDlsRvDE1g-113" value="" style="endArrow=none;html=1;rounded=0;strokeColor=#006eff;" edge="1" parent="uT9SR2ZFcRWDlsRvDE1g-110">
          <mxGeometry width="50" height="50" relative="1" as="geometry">
            <mxPoint y="50" as="sourcePoint" />
            <mxPoint x="40" y="40" as="targetPoint" />
          </mxGeometry>
        </mxCell>
        <mxCell id="uT9SR2ZFcRWDlsRvDE1g-114" value="" style="endArrow=none;html=1;rounded=0;strokeColor=#006eff;" edge="1" parent="uT9SR2ZFcRWDlsRvDE1g-110">
          <mxGeometry width="50" height="50" relative="1" as="geometry">
            <mxPoint y="50" as="sourcePoint" />
            <mxPoint x="40" y="60" as="targetPoint" />
          </mxGeometry>
        </mxCell>
        <mxCell id="uT9SR2ZFcRWDlsRvDE1g-115" value="" style="endArrow=none;html=1;rounded=0;strokeColor=#006eff;" edge="1" parent="uT9SR2ZFcRWDlsRvDE1g-110">
          <mxGeometry width="50" height="50" relative="1" as="geometry">
            <mxPoint y="50" as="sourcePoint" />
            <mxPoint x="40" y="80" as="targetPoint" />
          </mxGeometry>
        </mxCell>
        <mxCell id="uT9SR2ZFcRWDlsRvDE1g-116" value="" style="endArrow=none;html=1;rounded=0;strokeColor=#006eff;" edge="1" parent="uT9SR2ZFcRWDlsRvDE1g-110">
          <mxGeometry width="50" height="50" relative="1" as="geometry">
            <mxPoint y="50" as="sourcePoint" />
            <mxPoint x="40" y="100" as="targetPoint" />
          </mxGeometry>
        </mxCell>
        <mxCell id="uT9SR2ZFcRWDlsRvDE1g-117" value="" style="group" vertex="1" connectable="0" parent="uT9SR2ZFcRWDlsRvDE1g-110">
          <mxGeometry x="50" width="41" height="100" as="geometry" />
        </mxCell>
        <mxCell id="uT9SR2ZFcRWDlsRvDE1g-118" value="" style="endArrow=none;html=1;rounded=0;strokeColor=#006eff;" edge="1" parent="uT9SR2ZFcRWDlsRvDE1g-117">
          <mxGeometry width="50" height="50" relative="1" as="geometry">
            <mxPoint x="41" y="50" as="sourcePoint" />
            <mxPoint y="100" as="targetPoint" />
          </mxGeometry>
        </mxCell>
        <mxCell id="uT9SR2ZFcRWDlsRvDE1g-119" value="" style="endArrow=none;html=1;rounded=0;strokeColor=#006eff;" edge="1" parent="uT9SR2ZFcRWDlsRvDE1g-117">
          <mxGeometry width="50" height="50" relative="1" as="geometry">
            <mxPoint x="41" y="50" as="sourcePoint" />
            <mxPoint y="80" as="targetPoint" />
          </mxGeometry>
        </mxCell>
        <mxCell id="uT9SR2ZFcRWDlsRvDE1g-120" value="" style="endArrow=none;html=1;rounded=0;strokeColor=#006eff;" edge="1" parent="uT9SR2ZFcRWDlsRvDE1g-117">
          <mxGeometry width="50" height="50" relative="1" as="geometry">
            <mxPoint x="41" y="50" as="sourcePoint" />
            <mxPoint x="1" y="60" as="targetPoint" />
          </mxGeometry>
        </mxCell>
        <mxCell id="uT9SR2ZFcRWDlsRvDE1g-121" value="" style="endArrow=none;html=1;rounded=0;strokeColor=#006eff;" edge="1" parent="uT9SR2ZFcRWDlsRvDE1g-117">
          <mxGeometry width="50" height="50" relative="1" as="geometry">
            <mxPoint x="41" y="50" as="sourcePoint" />
            <mxPoint x="1" y="40" as="targetPoint" />
          </mxGeometry>
        </mxCell>
        <mxCell id="uT9SR2ZFcRWDlsRvDE1g-122" value="" style="endArrow=none;html=1;rounded=0;strokeColor=#006eff;" edge="1" parent="uT9SR2ZFcRWDlsRvDE1g-117">
          <mxGeometry width="50" height="50" relative="1" as="geometry">
            <mxPoint x="41" y="50" as="sourcePoint" />
            <mxPoint x="2" y="20" as="targetPoint" />
          </mxGeometry>
        </mxCell>
        <mxCell id="uT9SR2ZFcRWDlsRvDE1g-123" value="" style="endArrow=none;html=1;rounded=0;strokeColor=#006eff;" edge="1" parent="uT9SR2ZFcRWDlsRvDE1g-117">
          <mxGeometry width="50" height="50" relative="1" as="geometry">
            <mxPoint x="41" y="50" as="sourcePoint" />
            <mxPoint x="2" as="targetPoint" />
          </mxGeometry>
        </mxCell>
        <mxCell id="uT9SR2ZFcRWDlsRvDE1g-124" value="" style="group" vertex="1" connectable="0" parent="uT9SR2ZFcRWDlsRvDE1g-110">
          <mxGeometry x="40" width="10" height="100" as="geometry" />
        </mxCell>
        <mxCell id="uT9SR2ZFcRWDlsRvDE1g-125" value="" style="endArrow=none;html=1;rounded=0;strokeColor=#006eff;" edge="1" parent="uT9SR2ZFcRWDlsRvDE1g-124">
          <mxGeometry width="50" height="50" relative="1" as="geometry">
            <mxPoint as="sourcePoint" />
            <mxPoint x="10" as="targetPoint" />
          </mxGeometry>
        </mxCell>
        <mxCell id="uT9SR2ZFcRWDlsRvDE1g-126" value="" style="endArrow=none;html=1;rounded=0;strokeColor=#006eff;" edge="1" parent="uT9SR2ZFcRWDlsRvDE1g-124">
          <mxGeometry width="50" height="50" relative="1" as="geometry">
            <mxPoint y="20" as="sourcePoint" />
            <mxPoint x="10" y="20" as="targetPoint" />
          </mxGeometry>
        </mxCell>
        <mxCell id="uT9SR2ZFcRWDlsRvDE1g-127" value="" style="endArrow=none;html=1;rounded=0;strokeColor=#006eff;" edge="1" parent="uT9SR2ZFcRWDlsRvDE1g-124">
          <mxGeometry width="50" height="50" relative="1" as="geometry">
            <mxPoint y="40" as="sourcePoint" />
            <mxPoint x="10" y="40" as="targetPoint" />
          </mxGeometry>
        </mxCell>
        <mxCell id="uT9SR2ZFcRWDlsRvDE1g-128" value="" style="endArrow=none;html=1;rounded=0;strokeColor=#006eff;" edge="1" parent="uT9SR2ZFcRWDlsRvDE1g-124">
          <mxGeometry width="50" height="50" relative="1" as="geometry">
            <mxPoint y="60" as="sourcePoint" />
            <mxPoint x="10" y="60" as="targetPoint" />
          </mxGeometry>
        </mxCell>
        <mxCell id="uT9SR2ZFcRWDlsRvDE1g-129" value="" style="endArrow=none;html=1;rounded=0;strokeColor=#006eff;" edge="1" parent="uT9SR2ZFcRWDlsRvDE1g-124">
          <mxGeometry width="50" height="50" relative="1" as="geometry">
            <mxPoint y="80" as="sourcePoint" />
            <mxPoint x="10" y="80" as="targetPoint" />
          </mxGeometry>
        </mxCell>
        <mxCell id="uT9SR2ZFcRWDlsRvDE1g-130" value="" style="endArrow=none;html=1;rounded=0;strokeColor=#006eff;" edge="1" parent="uT9SR2ZFcRWDlsRvDE1g-124">
          <mxGeometry width="50" height="50" relative="1" as="geometry">
            <mxPoint y="100" as="sourcePoint" />
            <mxPoint x="10" y="100" as="targetPoint" />
          </mxGeometry>
        </mxCell>
        <mxCell id="uT9SR2ZFcRWDlsRvDE1g-131" value="" style="endArrow=none;html=1;rounded=0;strokeColor=#ff0000;" edge="1" parent="1">
          <mxGeometry width="50" height="50" relative="1" as="geometry">
            <mxPoint x="310" y="1000" as="sourcePoint" />
            <mxPoint x="320" y="1000" as="targetPoint" />
          </mxGeometry>
        </mxCell>
        <mxCell id="uT9SR2ZFcRWDlsRvDE1g-132" value="" style="endArrow=none;html=1;rounded=0;strokeColor=#ff0000;" edge="1" parent="1">
          <mxGeometry width="50" height="50" relative="1" as="geometry">
            <mxPoint x="410" y="1000" as="sourcePoint" />
            <mxPoint x="480" y="1000" as="targetPoint" />
          </mxGeometry>
        </mxCell>
        <mxCell id="uT9SR2ZFcRWDlsRvDE1g-133" value="" style="shape=curlyBracket;whiteSpace=wrap;html=1;rounded=1;flipH=1;labelPosition=right;verticalLabelPosition=middle;align=left;verticalAlign=middle;rotation=-90;" vertex="1" parent="1">
          <mxGeometry x="225" y="795" width="10" height="60" as="geometry" />
        </mxCell>
        <mxCell id="uT9SR2ZFcRWDlsRvDE1g-134" value="long time thread" style="text;html=1;align=center;verticalAlign=middle;resizable=0;points=[];autosize=1;strokeColor=none;fillColor=none;" vertex="1" parent="1">
          <mxGeometry x="175" y="798" width="110" height="30" as="geometry" />
        </mxCell>
      </root>
    </mxGraphModel>
  </diagram>
</mxfile>
